#!OML:ASF X:\für Bonn\!DataBase\2005_08_12_Daniel\c3d\Daniel.ASF
:FULLY-SPECIFIED
:DEGREES
91
root 1.61656 17.6761 -15.4923 352.689 6.20738 0.0982621
lowerback 28.2624 0.0326504 2.08328
upperback 12.9801 0.545827 -2.18581
thorax -0.997032 0.486925 -3.74055
lowerneck 8.04652 -2.54633 0.669905
upperneck 22.4803 -3.48806 1.2531
head 5.52282 -1.52533 0.21141
rclavicle -1.68967e-014 5.1684e-015
rhumerus 182.215 -172.778 -271.677
rradius 14.1899
rwrist 26.5582
rhand -21.9916 13.4815
rfingers 7.12502
rthumb 4.41689 -16.4524
lclavicle -1.68967e-014 5.1684e-015
lhumerus -21.8683 5.44518 85.7576
lradius 48.0413
lwrist -3.60691
lhand -11.5736 -8.18184
lfingers 7.12502
lthumb 14.4679 21.2938
rfemur -2.59694 8.44818 13.9493
rtibia 22.2983
rfoot -15.1344 -9.01421
rtoes -14.6101
lfemur -10.0449 -13.5588 -21.6553
ltibia 33.3724
lfoot -15.2459 1.23088
ltoes -10.686
92
root 1.60042 17.6783 -15.5309 352.94 6.51843 0.119427
lowerback 29.0089 0.0124366 2.18111
upperback 13.1422 0.566511 -2.07563
thorax -1.149 0.50127 -3.69446
lowerneck 7.63709 -2.74604 0.698116
upperneck 22.2216 -3.78348 1.42555
head 5.50967 -1.65473 0.250093
rclavicle -1.88845e-014 1.47101e-014
rhumerus 182.821 -173.024 -271.433
rradius 14.1097
rwrist 26.0021
rhand -21.9789 13.4765
rfingers 7.12502
rthumb 4.42918 -16.4572
lclavicle -1.88845e-014 1.47101e-014
lhumerus -21.8419 5.08127 86.0722
lradius 48.8625
lwrist -3.2283
lhand -11.5459 -8.19546
lfingers 7.12502
lthumb 14.4946 21.2783
rfemur -3.01751 8.29719 13.8842
rtibia 22.4238
rfoot -15.1412 -9.18508
rtoes -14.5049
lfemur -10.5694 -13.6117 -21.5482
ltibia 33.4231
lfoot -15.0458 0.959733
ltoes -10.7592
93
root 1.58394 17.6801 -15.5673 353.196 6.81677 0.09107
lowerback 29.7444 -0.0151505 2.3501
upperback 13.3004 0.598406 -1.96132
thorax -1.29386 0.524132 -3.68785
lowerneck 7.18936 -2.96121 0.775287
upperneck 22.0446 -4.09192 1.54505
head 5.52771 -1.78816 0.261512
rclavicle 2.40529e-014 1.13307e-014
rhumerus 183.417 -173.213 -271.198
rradius 14.0638
rwrist 25.4434
rhand -21.8933 13.4315
rfingers 7.12502
rthumb 4.51178 -16.5005
lclavicle 2.40529e-014 1.13307e-014
lhumerus -21.8132 4.74625 86.3664
lradius 49.6235
lwrist -2.94788
lhand -11.5218 -8.20927
lfingers 7.12502
lthumb 14.5178 21.2628
rfemur -3.44318 8.17717 13.8804
rtibia 22.5386
rfoot -15.14 -9.38202
rtoes -14.3651
lfemur -11.0995 -13.6531 -21.3828
ltibia 33.4822
lfoot -14.8635 0.700912
ltoes -10.9321
94
root 1.56633 17.6816 -15.6045 353.468 7.11614 0.0771867
lowerback 30.4826 -0.0456076 2.50621
upperback 13.4573 0.62704 -1.83925
thorax -1.43785 0.544467 -3.66429
lowerneck 7.17021 -3.15723 0.744177
upperneck 21.5677 -4.37646 1.76494
head 5.38666 -1.91985 0.332214
rclavicle 7.05686e-015 -3.00165e-014
rhumerus 184.006 -173.275 -270.959
rradius 14.0633
rwrist 25.0535
rhand -21.7958 13.3523
rfingers 7.12502
rthumb 4.60592 -16.5776
lclavicle 7.05686e-015 -3.00165e-014
lhumerus -21.8237 4.38974 86.658
lradius 50.3831
lwrist -2.66799
lhand -11.5435 -8.14685
lfingers 7.12502
lthumb 14.4969 21.3267
rfemur -3.87696 8.07555 13.8672
rtibia 22.6451
rfoot -15.1437 -9.61771
rtoes -14.2647
lfemur -11.6529 -13.6825 -21.2228
ltibia 33.5384
lfoot -14.6541 0.428961
ltoes -10.9382
95
root 1.54911 17.6831 -15.6424 353.734 7.39747 0.0492651
lowerback 31.2401 -0.0883031 2.71472
upperback 13.6119 0.65684 -1.73833
thorax -1.5867 0.568327 -3.69525
lowerneck 7.55884 -3.35114 0.738635
upperneck 20.8345 -4.64149 2.00312
head 5.10106 -2.04711 0.414621
rclavicle -2.41523e-014 -1.68967e-015
rhumerus 184.635 -173.179 -270.79
rradius 14.0869
rwrist 24.7308
rhand -21.5872 13.2191
rfingers 7.12502
rthumb 4.80737 -16.7063
lclavicle -2.41523e-014 -1.68967e-015
lhumerus -21.8424 4.04435 86.894
lradius 51.0677
lwrist -2.4206
lhand -11.6039 -8.15344
lfingers 7.12502
lthumb 14.4387 21.3243
rfemur -4.30841 7.93576 13.8619
rtibia 22.7369
rfoot -15.1194 -9.78333
rtoes -14.2049
lfemur -12.1978 -13.7542 -21.0507
ltibia 33.6021
lfoot -14.4769 0.203227
ltoes -10.9681
96
root 1.53169 17.6854 -15.6813 353.999 7.67802 0.00338094
lowerback 32.0199 -0.153089 2.95266
upperback 13.7616 0.671322 -1.64366
thorax -1.74649 0.585745 -3.74596
lowerneck 7.8864 -3.53345 0.707416
upperneck 20.1452 -4.8944 2.26557
head 4.84248 -2.17002 0.508585
rclavicle 1.86858e-014 -2.39536e-014
rhumerus 185.335 -172.939 -270.674
rradius 14.0527
rwrist 24.5986
rhand -21.36 13.0863
rfingers 7.12502
rthumb 5.02674 -16.834
lclavicle 1.86858e-014 -2.39536e-014
lhumerus -21.893 3.75772 87.0996
lradius 51.6987
lwrist -2.29944
lhand -11.654 -8.20872
lfingers 7.12502
lthumb 14.3904 21.2725
rfemur -4.74983 7.8424 13.8823
rtibia 22.832
rfoot -15.1178 -9.99813
rtoes -14.1618
lfemur -12.7529 -13.8026 -20.8596
ltibia 33.661
lfoot -14.2698 -0.0330601
ltoes -11.0492
97
root 1.51313 17.6865 -15.7202 354.273 7.95713 -0.0446456
lowerback 33.2116 -0.252708 3.21698
upperback 13.6261 0.68857 -1.70185
thorax -2.02566 0.607417 -3.69188
lowerneck 8.41006 -3.71056 0.744037
upperneck 18.9202 -5.09919 2.4257
head 4.93736 -2.28678 0.626368
rclavicle 2.97183e-014 -1.56046e-014
rhumerus 186.08 -172.685 -270.576
rradius 13.9816
rwrist 24.5046
rhand -21.1296 12.9774
rfingers 7.12502
rthumb 5.24921 -16.9376
lclavicle 2.97183e-014 -1.56046e-014
lhumerus -21.945 3.48709 87.2803
lradius 52.2751
lwrist -2.22284
lhand -11.8106 -8.28149
lfingers 7.12502
lthumb 14.2395 21.2104
rfemur -5.19214 7.77073 13.9134
rtibia 22.9179
rfoot -15.1238 -10.2343
rtoes -14.0204
lfemur -13.3214 -13.8313 -20.6566
ltibia 33.7186
lfoot -14.0594 -0.30745
ltoes -11.1161
